<?xml version="1.0" encoding="iso-8859-1"?>
<!-- Uploaded to: SVG Repo, www.svgrepo.com, Generator: SVG Repo Mixer Tools -->
<!DOCTYPE svg PUBLIC "-//W3C//DTD SVG 1.1//EN" "http://www.w3.org/Graphics/SVG/1.1/DTD/svg11.dtd">
<svg version="1.1" id="Capa_1" xmlns="http://www.w3.org/2000/svg" xmlns:xlink="http://www.w3.org/1999/xlink" 
	 viewBox="0 0 96.46 96.46" xml:space="preserve">
<g>
	<path style="fill:#484E4E;" d="M63.9,28.673c0,1.356-2.528,2.455-3.72,2.455h-23.9c-1.191,0-3.72-1.099-3.72-2.455l1.563-15.749
		c0-1.355,0.966-2.454,2.157-2.454h23.9c1.191,0,2.158,1.099,2.158,2.454L63.9,28.673z"/>
	<path style="fill:#FFFFFF;" d="M59.066,14.383c0,0.791-0.563,1.432-1.259,1.432H38.45c-0.695,0-1.259-0.641-1.259-1.432l0,0
		c0-0.791,0.564-1.432,1.259-1.432h19.357C58.502,12.951,59.066,13.592,59.066,14.383L59.066,14.383z"/>
	<path style="fill:#484E4E;" d="M81.884,25.859c0,1.128-0.81,2.043-1.808,2.043H77.86c-0.998,0-1.808-0.915-1.808-2.043v-5.591
		c0-1.129,0.81-2.043,1.808-2.043h2.217c0.998,0,1.808,0.915,1.808,2.043V25.859z"/>
	<path style="fill:#484E4E;" d="M25.101,25.283v-3.435c0-1.339-1.085-2.424-2.424-2.424h-8.89c-1.338,0-2.424,1.085-2.424,2.424
		v3.435H25.101z"/>
	<path style="fill:#484E4E;" d="M50.02,40.786h-2.099c-0.818,0-1.48,0.663-1.48,1.48v11.875c0,0.817,0.663,1.48,1.48,1.48h2.099
		V40.786z"/>
	<path style="fill:#484E4E;" d="M46.441,40.786h2.098c0.818,0,1.481,0.663,1.481,1.48v11.875c0,0.817-0.663,1.48-1.481,1.48h-2.098
		V40.786z"/>
	<path style="fill:#CFCEC7;" d="M96.308,78.639c0,4.061-3.292,7.352-7.353,7.352H7.505c-4.061,0-7.352-3.292-7.352-7.352V31.456
		c0-4.061,3.292-7.352,7.352-7.352h81.451c4.061,0,7.353,3.292,7.353,7.352V78.639z"/>
	<rect x="0" y="38.497" style="fill:#484E4E;" width="96.46" height="33.101"/>
	<g>
		<circle style="fill:#CFCEC7;" cx="83.475" cy="61.906" r="3.749"/>
		<circle style="fill:#FF7526;" cx="83.475" cy="61.906" r="2.21"/>
	</g>
	<path style="opacity:0.16;fill:#FFFFFF;" d="M48.128,10.469H36.28c-1.191,0-2.157,1.099-2.157,2.454l-1.109,11.181h-7.912v-2.256
		c0-1.339-1.085-2.424-2.424-2.424h-8.89c-1.338,0-2.424,1.085-2.424,2.424v2.256H7.505c-4.061,0-7.352,3.292-7.352,7.352v7.041H0
		v33.101h0.152v7.041c0,4.061,3.292,7.352,7.352,7.352h40.624V10.469z"/>
	<circle style="fill:#FF7526;" cx="48.23" cy="55.802" r="27.011"/>
	<circle style="fill:#484E4E;" cx="48.23" cy="55.802" r="21.295"/>
	<circle style="fill:#CFCEC7;" cx="48.23" cy="55.802" r="15.899"/>
	<circle style="fill:#484E4E;" cx="48.23" cy="55.802" r="11.447"/>
	<circle style="fill:#FFFFFF;" cx="41.534" cy="48.682" r="4.729"/>
</g>
</svg>